# WaveFront *.obj file (generated by CINEMA 4D)

v 209.73272705078125 0 287.90911865234375
v 439.73272705078125 0 287.90911865234375
v 439.73272705078125 0 517.90911865234375
v 209.73272705078125 0 517.90911865234375
v 324.73272705078125 145 402.90911865234375
v -105 0 -105
v 105 0 -105
v 105 0 105
v -105 0 105
v 0 135 0
v -306.28497314453125 0 -475.25283813476562
v -206.28498840332031 0 -475.25283813476562
v -206.28498840332031 0 -375.25283813476562
v -306.28497314453125 0 -375.25283813476562
v -256.28497314453125 65 -425.25283813476562
# 15 vertices

vn 0 -1 0
vn 0.78349769115448 0.62139469385147 0
vn 0 0 0
vn 0 0.62139469385147 0.78349769115448
vn -0.78349769115448 0.62139469385147 0
vn 0 0.62139469385147 -0.78349769115448
vn 0.78935217857361 0.61394065618515 0
vn 0 0.61394065618515 0.78935217857361
vn -0.78935217857361 0.61394065618515 0
vn 0 0.61394065618515 -0.78935217857361
vn 0.79262405633926 0.60971063375473 0
vn 0 0.60971075296402 0.79262399673462
vn -0.79262399673462 0.60971075296402 0
vn 0 0.60971075296402 -0.79262399673462
# 14 normals

vt 0 1 0
vt 1 1 0
vt 1 0 0
vt 0 0 0
vt 0.5 1 0
# 5 texture coordinates

o Null
usemtl default
f 1/1/1 2/2/1 3/3/1 4/4/1
f 5/5/2 3/3/2 2/4/2
f 5/5/4 4/3/4 3/4/4
f 5/5/5 1/3/5 4/4/5
f 5/5/6 2/3/6 1/4/6
f 6/1/1 7/2/1 8/3/1 9/4/1
f 10/5/7 8/3/7 7/4/7
f 10/5/8 9/3/8 8/4/8
f 10/5/9 6/3/9 9/4/9
f 10/5/10 7/3/10 6/4/10
f 11/1/1 12/2/1 13/3/1 14/4/1
f 15/5/11 13/3/11 12/4/11
f 15/5/12 14/3/12 13/4/12
f 15/5/13 11/3/13 14/4/13
f 15/5/14 12/3/14 11/4/14

